<svg style="background-color: rgb(255, 255, 255);" viewBox="-0.5 -0.5 689 3512" height="3512px" width="689px" version="1.1" xmlns:xlink="http://www.w3.org/1999/xlink" xmlns="http://www.w3.org/2000/svg"><defs></defs><g><path stroke-miterlimit="10" stroke="rgb(0, 0, 0)" fill="none" d="M 276.67 210 L 276.67 243.63"></path><path stroke-miterlimit="10" stroke="rgb(0, 0, 0)" fill="rgb(0, 0, 0)" d="M 276.67 248.88 L 273.17 241.88 L 276.67 243.63 L 280.17 241.88 Z"></path><rect stroke="rgb(0, 0, 0)" fill="rgb(255, 255, 255)" ry="12" rx="12" height="80" width="240" y="250" x="156.67"></rect><g transform="translate(-0.5 -0.5)"><switch><text text-anchor="middle" font-size="12px" font-family="Helvetica" fill="rgb(0, 0, 0)" y="294" x="277">Request gets written into GHALicensePort...</text></switch></g><path stroke-miterlimit="10" stroke="rgb(0, 0, 0)" fill="none" d="M 276.67 90 L 276.67 123.63"></path><path stroke-miterlimit="10" stroke="rgb(0, 0, 0)" fill="rgb(0, 0, 0)" d="M 276.67 128.88 L 273.17 121.88 L 276.67 123.63 L 280.17 121.88 Z"></path><rect stroke="rgb(0, 0, 0)" fill="rgb(255, 255, 255)" ry="13.5" rx="13.5" height="90" width="240" y="0" x="156.67"></rect><g transform="translate(-0.5 -0.5)"><switch><text text-anchor="middle" font-size="12px" font-family="Helvetica" fill="rgb(0, 0, 0)" y="49" x="277">Customer requires a new field&nbsp;</text></switch></g><rect stroke="rgb(0, 0, 0)" fill="rgb(255, 255, 255)" ry="12" rx="12" height="80" width="240" y="130" x="156.67"></rect><g transform="translate(-0.5 -0.5)"><switch><text text-anchor="middle" font-size="12px" font-family="Helvetica" fill="rgb(0, 0, 0)" y="174" x="277">Customer adds a new request on the Licen...</text></switch></g><path stroke-miterlimit="10" stroke="rgb(0, 0, 0)" fill="none" d="M 286.67 470 L 286.67 503.63"></path><path stroke-miterlimit="10" stroke="rgb(0, 0, 0)" fill="rgb(0, 0, 0)" d="M 286.67 508.88 L 283.17 501.88 L 286.67 503.63 L 290.17 501.88 Z"></path><rect stroke="rgb(0, 0, 0)" fill="rgb(255, 255, 255)" ry="12" rx="12" height="80" width="240" y="390" x="166.67"></rect><g transform="translate(-0.5 -0.5)"><switch><text text-anchor="middle" font-size="12px" font-family="Helvetica" fill="rgb(0, 0, 0)" y="434" x="287">Worker Service Starts</text></switch></g><path stroke-miterlimit="10" stroke="rgb(0, 0, 0)" fill="none" d="M 286.67 590 L 286.67 623.63"></path><path stroke-miterlimit="10" stroke="rgb(0, 0, 0)" fill="rgb(0, 0, 0)" d="M 286.67 628.88 L 283.17 621.88 L 286.67 623.63 L 290.17 621.88 Z"></path><rect stroke="rgb(0, 0, 0)" fill="rgb(255, 255, 255)" ry="12" rx="12" height="80" width="240" y="510" x="166.67"></rect><g transform="translate(-0.5 -0.5)"><switch><text text-anchor="middle" font-size="12px" font-family="Helvetica" fill="rgb(0, 0, 0)" y="554" x="287">A list of customer is grabbed using...</text></switch></g><path stroke-miterlimit="10" stroke="rgb(0, 0, 0)" fill="none" d="M 286.67 870 L 286.67 903.63"></path><path stroke-miterlimit="10" stroke="rgb(0, 0, 0)" fill="rgb(0, 0, 0)" d="M 286.67 908.88 L 283.17 901.88 L 286.67 903.63 L 290.17 901.88 Z"></path><g transform="translate(-0.5 -0.5)"><switch><text text-anchor="middle" font-size="11px" font-family="Helvetica" fill="rgb(0, 0, 0)" y="895" x="288">Yes</text></switch></g><path stroke-miterlimit="10" stroke="rgb(0, 0, 0)" fill="none" d="M 166.67 750 L 16.67 750 Q 6.67 750 6.67 760 L 6.67 3460 Q 6.67 3470 16.67 3470 L 160.3 3470"></path><path stroke-miterlimit="10" stroke="rgb(0, 0, 0)" fill="rgb(0, 0, 0)" d="M 165.55 3470 L 158.55 3473.5 L 160.3 3470 L 158.55 3466.5 Z"></path><g transform="translate(-0.5 -0.5)"><switch><text text-anchor="middle" font-size="11px" font-family="Helvetica" fill="rgb(0, 0, 0)" y="756" x="112">No</text></switch></g><path stroke-miterlimit="10" stroke="rgb(0, 0, 0)" fill="rgb(255, 255, 255)" d="M 226.67 690 L 279.6 637.07 Q 286.67 630 293.74 637.07 L 399.6 742.93 Q 406.67 750 399.6 757.07 L 293.74 862.93 Q 286.67 870 279.6 862.93 L 173.74 757.07 Q 166.67 750 173.74 742.93 Z"></path><g transform="translate(-0.5 -0.5)"><switch><text text-anchor="middle" font-size="12px" font-family="Helvetica" fill="rgb(0, 0, 0)" y="754" x="287">Is there any more customers in the list?</text></switch></g><path stroke-miterlimit="10" stroke="rgb(0, 0, 0)" fill="none" d="M 286.67 1110 L 286.67 1143.63"></path><path stroke-miterlimit="10" stroke="rgb(0, 0, 0)" fill="rgb(0, 0, 0)" d="M 286.67 1148.88 L 283.17 1141.88 L 286.67 1143.63 L 290.17 1141.88 Z"></path><rect stroke="rgb(0, 0, 0)" fill="rgb(255, 255, 255)" ry="12" rx="12" height="80" width="240" y="1030" x="166.67"></rect><g transform="translate(-0.5 -0.5)"><switch><text text-anchor="middle" font-size="12px" font-family="Helvetica" fill="rgb(0, 0, 0)" y="1074" x="287">Test Customer's connection to Epicor</text></switch></g><path stroke-miterlimit="10" stroke="rgb(0, 0, 0)" fill="none" d="M 406.67 1270 L 597.67 1270 Q 607.67 1270 607.67 1260 L 607.67 890 Q 607.67 880 597.67 880 L 293.04 880"></path><path stroke-miterlimit="10" stroke="rgb(0, 0, 0)" fill="rgb(0, 0, 0)" d="M 287.79 880 L 294.79 876.5 L 293.04 880 L 294.79 883.5 Z"></path><g transform="translate(-0.5 -0.5)"><switch><text text-anchor="middle" font-size="11px" font-family="Helvetica" fill="rgb(0, 0, 0)" y="1273" x="445">No</text></switch></g><path stroke-miterlimit="10" stroke="rgb(0, 0, 0)" fill="none" d="M 286.67 1390 L 286.67 1423.63"></path><path stroke-miterlimit="10" stroke="rgb(0, 0, 0)" fill="rgb(0, 0, 0)" d="M 286.67 1428.88 L 283.17 1421.88 L 286.67 1423.63 L 290.17 1421.88 Z"></path><g transform="translate(-0.5 -0.5)"><switch><text text-anchor="middle" font-size="11px" font-family="Helvetica" fill="rgb(0, 0, 0)" y="1412" x="287">Yes</text></switch></g><path stroke-miterlimit="10" stroke="rgb(0, 0, 0)" fill="rgb(255, 255, 255)" d="M 226.67 1210 L 279.6 1157.07 Q 286.67 1150 293.74 1157.07 L 399.6 1262.93 Q 406.67 1270 399.6 1277.07 L 293.74 1382.93 Q 286.67 1390 279.6 1382.93 L 173.74 1277.07 Q 166.67 1270 173.74 1262.93 Z"></path><g transform="translate(-0.5 -0.5)"><switch><text text-anchor="middle" font-size="12px" font-family="Helvetica" fill="rgb(0, 0, 0)" y="1274" x="287">Is the Epicor Connection correct?</text></switch></g><path stroke-miterlimit="10" stroke="rgb(0, 0, 0)" fill="none" d="M 286.67 990 L 286.67 1023.63"></path><path stroke-miterlimit="10" stroke="rgb(0, 0, 0)" fill="rgb(0, 0, 0)" d="M 286.67 1028.88 L 283.17 1021.88 L 286.67 1023.63 L 290.17 1021.88 Z"></path><rect stroke="rgb(0, 0, 0)" fill="rgb(255, 255, 255)" ry="12" rx="12" height="80" width="240" y="910" x="166.67"></rect><g transform="translate(-0.5 -0.5)"><switch><text text-anchor="middle" font-size="12px" font-family="Helvetica" fill="rgb(0, 0, 0)" y="954" x="287">Grab a customer from the list</text></switch></g><path stroke-miterlimit="10" stroke="rgb(0, 0, 0)" fill="none" d="M 286.67 1510 L 286.67 1543.63"></path><path stroke-miterlimit="10" stroke="rgb(0, 0, 0)" fill="rgb(0, 0, 0)" d="M 286.67 1548.88 L 283.17 1541.88 L 286.67 1543.63 L 290.17 1541.88 Z"></path><rect stroke="rgb(0, 0, 0)" fill="rgb(255, 255, 255)" ry="12" rx="12" height="80" width="240" y="1430" x="166.67"></rect><g transform="translate(-0.5 -0.5)"><switch><text text-anchor="middle" font-size="12px" font-family="Helvetica" fill="rgb(0, 0, 0)" y="1474" x="287">Run Checks&nbsp;</text></switch></g><path stroke-miterlimit="10" stroke="rgb(0, 0, 0)" fill="none" d="M 406.67 1670 L 597.33 1670 Q 607.33 1670 607.32 1660 L 606.68 1276.37"></path><path stroke-miterlimit="10" stroke="rgb(0, 0, 0)" fill="rgb(0, 0, 0)" d="M 606.67 1271.12 L 610.18 1278.11 L 606.68 1276.37 L 603.18 1278.12 Z"></path><g transform="translate(-0.5 -0.5)"><switch><text text-anchor="middle" font-size="11px" font-family="Helvetica" fill="rgb(0, 0, 0)" y="1673" x="462">No</text></switch></g><path stroke-miterlimit="10" stroke="rgb(0, 0, 0)" fill="none" d="M 286.67 1790 L 286.67 1823.63"></path><path stroke-miterlimit="10" stroke="rgb(0, 0, 0)" fill="rgb(0, 0, 0)" d="M 286.67 1828.88 L 283.17 1821.88 L 286.67 1823.63 L 290.17 1821.88 Z"></path><g transform="translate(-0.5 -0.5)"><switch><text text-anchor="middle" font-size="11px" font-family="Helvetica" fill="rgb(0, 0, 0)" y="1808" x="286">Yes</text></switch></g><path stroke-miterlimit="10" stroke="rgb(0, 0, 0)" fill="rgb(255, 255, 255)" d="M 226.67 1610 L 279.6 1557.07 Q 286.67 1550 293.74 1557.07 L 399.6 1662.93 Q 406.67 1670 399.6 1677.07 L 293.74 1782.93 Q 286.67 1790 279.6 1782.93 L 173.74 1677.07 Q 166.67 1670 173.74 1662.93 Z"></path><g transform="translate(-0.5 -0.5)"><switch><text text-anchor="middle" font-size="12px" font-family="Helvetica" fill="rgb(0, 0, 0)" y="1674" x="287">Did all the checks pass?</text></switch></g><path stroke-miterlimit="10" stroke="rgb(0, 0, 0)" fill="none" d="M 286.67 1910 L 286.67 1943.63"></path><path stroke-miterlimit="10" stroke="rgb(0, 0, 0)" fill="rgb(0, 0, 0)" d="M 286.67 1948.88 L 283.17 1941.88 L 286.67 1943.63 L 290.17 1941.88 Z"></path><rect stroke="rgb(0, 0, 0)" fill="rgb(255, 255, 255)" ry="12" rx="12" height="80" width="240" y="1830" x="166.67"></rect><g transform="translate(-0.5 -0.5)"><switch><text text-anchor="middle" font-size="12px" font-family="Helvetica" fill="rgb(0, 0, 0)" y="1874" x="287">Adds Changes to Epicor</text></switch></g><path stroke-miterlimit="10" stroke="rgb(0, 0, 0)" fill="none" d="M 406.67 2070 L 597.33 2070 Q 607.33 2070 607.29 2060 L 606.7 1916.37"></path><path stroke-miterlimit="10" stroke="rgb(0, 0, 0)" fill="rgb(0, 0, 0)" d="M 606.67 1911.12 L 610.2 1918.1 L 606.7 1916.37 L 603.2 1918.13 Z"></path><g transform="translate(-0.5 -0.5)"><switch><text text-anchor="middle" font-size="11px" font-family="Helvetica" fill="rgb(0, 0, 0)" y="2074" x="438">No
</text></switch></g><path stroke-miterlimit="10" stroke="rgb(0, 0, 0)" fill="none" d="M 286.67 2190 L 286.67 2223.63"></path><path stroke-miterlimit="10" stroke="rgb(0, 0, 0)" fill="rgb(0, 0, 0)" d="M 286.67 2228.88 L 283.17 2221.88 L 286.67 2223.63 L 290.17 2221.88 Z"></path><path stroke-miterlimit="10" stroke="rgb(0, 0, 0)" fill="rgb(255, 255, 255)" d="M 226.67 2010 L 279.6 1957.07 Q 286.67 1950 293.74 1957.07 L 399.6 2062.93 Q 406.67 2070 399.6 2077.07 L 293.74 2182.93 Q 286.67 2190 279.6 2182.93 L 173.74 2077.07 Q 166.67 2070 173.74 2062.93 Z"></path><g transform="translate(-0.5 -0.5)"><switch><text text-anchor="middle" font-size="12px" font-family="Helvetica" fill="rgb(0, 0, 0)" y="2074" x="287">Were Changes Successful</text></switch></g><path stroke-miterlimit="10" stroke="rgb(0, 0, 0)" fill="none" d="M 606.67 1830 L 606.67 1760.67 Q 606.67 1750.67 606.67 1740.67 L 606.67 1676.37"></path><path stroke-miterlimit="10" stroke="rgb(0, 0, 0)" fill="rgb(0, 0, 0)" d="M 606.67 1671.12 L 610.17 1678.12 L 606.67 1676.37 L 603.17 1678.12 Z"></path><rect stroke="rgb(0, 0, 0)" fill="rgb(255, 255, 255)" ry="12" rx="12" height="80" width="160" y="1830" x="526.67"></rect><g transform="translate(-0.5 -0.5)"><switch><text text-anchor="middle" font-size="12px" font-family="Helvetica" fill="rgb(0, 0, 0)" y="1874" x="607">Add Error message to the l...</text></switch></g><path stroke-miterlimit="10" stroke="rgb(0, 0, 0)" fill="none" d="M 286.67 2310 L 286.67 2343.63"></path><path stroke-miterlimit="10" stroke="rgb(0, 0, 0)" fill="rgb(0, 0, 0)" d="M 286.67 2348.88 L 283.17 2341.88 L 286.67 2343.63 L 290.17 2341.88 Z"></path><rect stroke="rgb(0, 0, 0)" fill="rgb(255, 255, 255)" ry="12" rx="12" height="80" width="240" y="2230" x="166.67"></rect><g transform="translate(-0.5 -0.5)"><switch><text text-anchor="middle" font-size="12px" font-family="Helvetica" fill="rgb(0, 0, 0)" y="2274" x="287">Rebuild Epicor</text></switch></g><path stroke-miterlimit="10" stroke="rgb(0, 0, 0)" fill="none" d="M 406.67 2470 L 597.33 2470 Q 607.33 2470 607.29 2460 L 606.7 2316.37"></path><path stroke-miterlimit="10" stroke="rgb(0, 0, 0)" fill="rgb(0, 0, 0)" d="M 606.67 2311.12 L 610.2 2318.1 L 606.7 2316.37 L 603.2 2318.13 Z"></path><path stroke-miterlimit="10" stroke="rgb(0, 0, 0)" fill="none" d="M 286.67 2590 L 286.67 2623.63"></path><path stroke-miterlimit="10" stroke="rgb(0, 0, 0)" fill="rgb(0, 0, 0)" d="M 286.67 2628.88 L 283.17 2621.88 L 286.67 2623.63 L 290.17 2621.88 Z"></path><path stroke-miterlimit="10" stroke="rgb(0, 0, 0)" fill="rgb(255, 255, 255)" d="M 226.67 2410 L 279.6 2357.07 Q 286.67 2350 293.74 2357.07 L 399.6 2462.93 Q 406.67 2470 399.6 2477.07 L 293.74 2582.93 Q 286.67 2590 279.6 2582.93 L 173.74 2477.07 Q 166.67 2470 173.74 2462.93 Z"></path><g transform="translate(-0.5 -0.5)"><switch><text text-anchor="middle" font-size="12px" font-family="Helvetica" fill="rgb(0, 0, 0)" y="2474" x="287">Was Rebuild Successful?</text></switch></g><path stroke-miterlimit="10" stroke="rgb(0, 0, 0)" fill="none" d="M 606.67 2230 L 606.67 2160.67 Q 606.67 2150.67 606.67 2140.67 L 606.67 2076.37"></path><path stroke-miterlimit="10" stroke="rgb(0, 0, 0)" fill="rgb(0, 0, 0)" d="M 606.67 2071.12 L 610.17 2078.12 L 606.67 2076.37 L 603.17 2078.12 Z"></path><rect stroke="rgb(0, 0, 0)" fill="rgb(255, 255, 255)" ry="12" rx="12" height="80" width="160" y="2230" x="526.67"></rect><g transform="translate(-0.5 -0.5)"><switch><text text-anchor="middle" font-size="12px" font-family="Helvetica" fill="rgb(0, 0, 0)" y="2274" x="607">Email GHA Support</text></switch></g><path stroke-miterlimit="10" stroke="rgb(0, 0, 0)" fill="none" d="M 286.67 2710 L 286.67 2743.63"></path><path stroke-miterlimit="10" stroke="rgb(0, 0, 0)" fill="rgb(0, 0, 0)" d="M 286.67 2748.88 L 283.17 2741.88 L 286.67 2743.63 L 290.17 2741.88 Z"></path><rect stroke="rgb(0, 0, 0)" fill="rgb(255, 255, 255)" ry="12" rx="12" height="80" width="240" y="2630" x="166.67"></rect><g transform="translate(-0.5 -0.5)"><switch><text text-anchor="middle" font-size="12px" font-family="Helvetica" fill="rgb(0, 0, 0)" y="2674" x="287">Recycle App Pool</text></switch></g><path stroke-miterlimit="10" stroke="rgb(0, 0, 0)" fill="none" d="M 406.67 2870 L 596.67 2870 Q 606.67 2870 606.67 2860 L 606.67 2716.37"></path><path stroke-miterlimit="10" stroke="rgb(0, 0, 0)" fill="rgb(0, 0, 0)" d="M 606.67 2711.12 L 610.17 2718.12 L 606.67 2716.37 L 603.17 2718.12 Z"></path><path stroke-miterlimit="10" stroke="rgb(0, 0, 0)" fill="none" d="M 286.67 2990 L 286.67 3023.63"></path><path stroke-miterlimit="10" stroke="rgb(0, 0, 0)" fill="rgb(0, 0, 0)" d="M 286.67 3028.88 L 283.17 3021.88 L 286.67 3023.63 L 290.17 3021.88 Z"></path><path stroke-miterlimit="10" stroke="rgb(0, 0, 0)" fill="rgb(255, 255, 255)" d="M 226.67 2810 L 279.6 2757.07 Q 286.67 2750 293.74 2757.07 L 399.6 2862.93 Q 406.67 2870 399.6 2877.07 L 293.74 2982.93 Q 286.67 2990 279.6 2982.93 L 173.74 2877.07 Q 166.67 2870 173.74 2862.93 Z"></path><g transform="translate(-0.5 -0.5)"><switch><text text-anchor="middle" font-size="12px" font-family="Helvetica" fill="rgb(0, 0, 0)" y="2874" x="287">Was Rebuild Successful?</text></switch></g><path stroke-miterlimit="10" stroke="rgb(0, 0, 0)" fill="none" d="M 606.67 2630 L 606.67 2560.67 Q 606.67 2550.67 606.67 2540.67 L 606.67 2476.37"></path><path stroke-miterlimit="10" stroke="rgb(0, 0, 0)" fill="rgb(0, 0, 0)" d="M 606.67 2471.12 L 610.17 2478.12 L 606.67 2476.37 L 603.17 2478.12 Z"></path><rect stroke="rgb(0, 0, 0)" fill="rgb(255, 255, 255)" ry="12" rx="12" height="80" width="160" y="2630" x="526.67"></rect><g transform="translate(-0.5 -0.5)"><switch><text text-anchor="middle" font-size="12px" font-family="Helvetica" fill="rgb(0, 0, 0)" y="2674" x="607">Email GHA Support</text></switch></g><path stroke-miterlimit="10" stroke="rgb(0, 0, 0)" fill="none" d="M 286.67 3110 L 286.67 3143.63"></path><path stroke-miterlimit="10" stroke="rgb(0, 0, 0)" fill="rgb(0, 0, 0)" d="M 286.67 3148.88 L 283.17 3141.88 L 286.67 3143.63 L 290.17 3141.88 Z"></path><rect stroke="rgb(0, 0, 0)" fill="rgb(255, 255, 255)" ry="12" rx="12" height="80" width="240" y="3030" x="166.67"></rect><g transform="translate(-0.5 -0.5)"><switch><text text-anchor="middle" font-size="12px" font-family="Helvetica" fill="rgb(0, 0, 0)" y="3074" x="287">Mark request as successful</text></switch></g><path stroke-miterlimit="10" stroke="rgb(0, 0, 0)" fill="none" d="M 406.67 3270 L 597.33 3270 Q 607.33 3270 607.29 3260 L 606.7 3116.37"></path><path stroke-miterlimit="10" stroke="rgb(0, 0, 0)" fill="rgb(0, 0, 0)" d="M 606.67 3111.12 L 610.2 3118.1 L 606.7 3116.37 L 603.2 3118.13 Z"></path><g transform="translate(-0.5 -0.5)"><switch><text text-anchor="middle" font-size="11px" font-family="Helvetica" fill="rgb(0, 0, 0)" y="3275" x="488">Yes</text></switch></g><path stroke-miterlimit="10" stroke="rgb(0, 0, 0)" fill="none" d="M 286.67 3390 L 286.67 3423.63"></path><path stroke-miterlimit="10" stroke="rgb(0, 0, 0)" fill="rgb(0, 0, 0)" d="M 286.67 3428.88 L 283.17 3421.88 L 286.67 3423.63 L 290.17 3421.88 Z"></path><path stroke-miterlimit="10" stroke="rgb(0, 0, 0)" fill="rgb(255, 255, 255)" d="M 226.67 3210 L 279.6 3157.07 Q 286.67 3150 293.74 3157.07 L 399.6 3262.93 Q 406.67 3270 399.6 3277.07 L 293.74 3382.93 Q 286.67 3390 279.6 3382.93 L 173.74 3277.07 Q 166.67 3270 173.74 3262.93 Z"></path><g transform="translate(-0.5 -0.5)"><switch><text text-anchor="middle" font-size="12px" font-family="Helvetica" fill="rgb(0, 0, 0)" y="3274" x="287">Are there any more not actioned requests?</text></switch></g><rect stroke="rgb(0, 0, 0)" fill="rgb(255, 255, 255)" ry="12" rx="12" height="80" width="240" y="3430" x="166.67"></rect><g transform="translate(-0.5 -0.5)"><switch><text text-anchor="middle" font-size="12px" font-family="Helvetica" fill="rgb(0, 0, 0)" y="3474" x="287">Sleep for the time specified in the AppS...</text></switch></g><path stroke-miterlimit="10" stroke="rgb(0, 0, 0)" fill="none" d="M 606.67 3030 L 606.67 2960.67 Q 606.67 2950.67 606.67 2940.67 L 606.67 2876.37"></path><path stroke-miterlimit="10" stroke="rgb(0, 0, 0)" fill="rgb(0, 0, 0)" d="M 606.67 2871.12 L 610.17 2878.12 L 606.67 2876.37 L 603.17 2878.12 Z"></path><rect stroke="rgb(0, 0, 0)" fill="rgb(255, 255, 255)" ry="12" rx="12" height="80" width="160" y="3030" x="526.67"></rect><g transform="translate(-0.5 -0.5)"><switch><text text-anchor="middle" font-size="12px" font-family="Helvetica" fill="rgb(0, 0, 0)" y="3074" x="607">Sleep for the time specifi...</text></switch></g></g><switch><g></g><a xlink:href="https://www.drawio.com/doc/faq/svg-export-text-problems" transform="translate(0,-5)"><text y="100%" x="50%" font-size="10px" text-anchor="middle">Text is not SVG - cannot display</text></a></switch></svg>