<svg viewBox="-0.5 -0.5 1751 691" height="691px" width="1751px" version="1.1" xmlns:xlink="http://www.w3.org/1999/xlink" xmlns="http://www.w3.org/2000/svg"><defs></defs><g><path stroke-miterlimit="10" stroke-width="3" stroke="#3700cc" fill="none" d="M 560 660 L 1400.06 660 L 1400.06 320"></path><path stroke-miterlimit="10" stroke-width="3" stroke="rgb(0, 0, 0)" fill="none" d="M 310.06 420 L 310.06 410 L 680.06 410 L 680 70.1"></path><path stroke-miterlimit="10" stroke-width="3" stroke="rgb(0, 0, 0)" fill="rgb(0, 0, 0)" d="M 680 63.35 L 684.5 72.35 L 680 70.1 L 675.5 72.35 Z"></path><path stroke-miterlimit="10" stroke-width="3" stroke="#9673a6" fill="none" d="M 480 630 L 480 490.1"></path><path stroke-miterlimit="10" stroke-width="3" stroke="#9673a6" fill="#9673a6" d="M 480 483.35 L 484.5 492.35 L 480 490.1 L 475.5 492.35 Z"></path><path stroke-miterlimit="10" stroke-width="3" stroke="#9673a6" fill="none" d="M 480.06 630 L 480.06 550 L 689.82 550 L 689.77 491.96"></path><path stroke-miterlimit="10" stroke-width="3" stroke="#9673a6" fill="#9673a6" d="M 689.76 485.21 L 694.27 494.21 L 689.77 491.96 L 685.27 494.22 Z"></path><path stroke-miterlimit="10" stroke-width="3" stroke="#9673a6" fill="none" d="M 480.06 630 L 480.06 550 L 880.06 550 L 880.01 490.1"></path><path stroke-miterlimit="10" stroke-width="3" stroke="#9673a6" fill="#9673a6" d="M 880 483.35 L 884.51 492.35 L 880.01 490.1 L 875.51 492.36 Z"></path><path stroke-miterlimit="10" stroke-width="3" stroke="#9673a6" fill="none" d="M 480.06 630 L 480.06 550 L 280.06 550 L 280.01 490.1"></path><path stroke-miterlimit="10" stroke-width="3" stroke="#9673a6" fill="#9673a6" d="M 280 483.35 L 284.51 492.35 L 280.01 490.1 L 275.51 492.36 Z"></path><path stroke-miterlimit="10" stroke-width="3" stroke="#9673a6" fill="none" d="M 480.06 630 L 480.06 550 L 1080.06 550 L 1080.01 490.1"></path><path stroke-miterlimit="10" stroke-width="3" stroke="#9673a6" fill="#9673a6" d="M 1080 483.35 L 1084.51 492.35 L 1080.01 490.1 L 1075.51 492.36 Z"></path><path stroke-miterlimit="10" stroke-width="3" stroke="#2d7600" fill="none" d="M 560 670 L 1410.06 670 L 1410.06 450 L 1420 450"></path><rect stroke="#9673a6" fill="#e1d5e7" height="60" width="160" y="630" x="400"></rect><g transform="translate(-0.5 -0.5)"><switch><text text-anchor="middle" font-size="12px" font-family="Helvetica" fill="rgb(0, 0, 0)" y="664" x="480">GHA.Common</text></switch></g><path stroke-miterlimit="10" stroke-width="3" stroke="#d79b00" fill="none" d="M 490.06 420 L 490.06 415 M 490.06 405 M 490.06 405 L 490.06 290 L 675.04 290 M 685.04 290 M 685.04 290 L 880.06 290 L 880 70.1"></path><path stroke-miterlimit="10" stroke-width="3" stroke="#d79b00" fill="#d79b00" d="M 880 63.35 L 884.5 72.35 L 880 70.1 L 875.5 72.36 Z"></path><path stroke-miterlimit="10" stroke-width="3" stroke="#b85450" fill="none" d="M 500.06 420 L 500.06 415 M 500.06 405 M 500.06 405 L 500.06 310 L 675.04 310 M 685.04 310 M 685.04 310 L 1080.06 310 L 1080 70.1"></path><path stroke-miterlimit="10" stroke-width="3" stroke="#b85450" fill="#b85450" d="M 1080 63.35 L 1084.5 72.35 L 1080 70.1 L 1075.5 72.36 Z"></path><path stroke-miterlimit="10" stroke-width="3" stroke="rgb(0, 0, 0)" fill="none" d="M 680.06 420 L 680.06 415 M 680.06 405 M 680.06 405 L 680.04 315 M 680.04 305 M 680.04 305 L 680.04 295 M 680.04 285 M 680.04 285 L 680 70.1"></path><path stroke-miterlimit="10" stroke-width="3" stroke="rgb(0, 0, 0)" fill="rgb(0, 0, 0)" d="M 680 63.35 L 684.5 72.35 L 680 70.1 L 675.5 72.36 Z"></path><rect stroke="#9673a6" fill="#e1d5e7" height="60" width="160" y="420" x="400"></rect><g transform="translate(-0.5 -0.5)"><switch><text text-anchor="middle" font-size="12px" font-family="Helvetica" fill="rgb(0, 0, 0)" y="454" x="480">GHA.Common.FieldService</text></switch></g><path stroke-miterlimit="10" stroke-width="3" stroke="#d79b00" fill="none" d="M 700.06 420 L 700.01 315 M 700.01 305 M 700.01 305 L 700 290"></path><path stroke-miterlimit="10" stroke-width="3" stroke="#b85450" fill="none" d="M 690.06 420 L 690.06 310"></path><rect stroke="#9673a6" fill="#e1d5e7" height="60" width="160" y="420" x="600"></rect><g transform="translate(-0.5 -0.5)"><switch><text text-anchor="middle" font-size="12px" font-family="Helvetica" fill="rgb(0, 0, 0)" y="454" x="680">GHA.Common.HealthCheck</text></switch></g><rect stroke="#9673a6" fill="#e1d5e7" height="60" width="160" y="420" x="800"></rect><g transform="translate(-0.5 -0.5)"><switch><text text-anchor="middle" font-size="12px" font-family="Helvetica" fill="rgb(0, 0, 0)" y="454" x="880">GHA.Common.Logging</text></switch></g><path stroke-miterlimit="10" stroke-width="3" stroke="#9673a6" fill="none" d="M 280 420 L 280 330.1"></path><path stroke-miterlimit="10" stroke-width="3" stroke="#9673a6" fill="#9673a6" d="M 280 323.35 L 284.5 332.35 L 280 330.1 L 275.5 332.35 Z"></path><path stroke-miterlimit="10" stroke-width="3" stroke="#6c8ebf" fill="none" d="M 300.06 420 L 300.06 400 L 480.06 400 L 480 70.1"></path><path stroke-miterlimit="10" stroke-width="3" stroke="#6c8ebf" fill="#6c8ebf" d="M 480 63.35 L 484.5 72.35 L 480 70.1 L 475.5 72.35 Z"></path><path stroke-miterlimit="10" stroke-width="3" stroke="#6d1f00" fill="none" d="M 290.06 420 L 290.06 340 L 475.05 340 M 485.05 340 M 485.05 340 L 485.06 340 M 495.06 340 M 495.06 340 L 495.06 340 M 505.06 340 M 505.06 340 L 680.05 340 L 680.05 340 L 685.02 340 M 695.02 340 M 695.02 340 L 695.02 340 M 705.02 340 M 705.02 340 L 1280.06 340 L 1280 70.1"></path><path stroke-miterlimit="10" stroke-width="3" stroke="#6d1f00" fill="#6d1f00" d="M 1280 63.35 L 1284.5 72.35 L 1280 70.1 L 1275.5 72.35 Z"></path><rect stroke="#9673a6" fill="#e1d5e7" height="60" width="160" y="420" x="200"></rect><g transform="translate(-0.5 -0.5)"><switch><text text-anchor="middle" font-size="12px" font-family="Helvetica" fill="rgb(0, 0, 0)" y="454" x="280">GHA.Common.Epicor</text></switch></g><path stroke-miterlimit="10" stroke-width="3" stroke="#2d7600" fill="none" d="M 1360 450 L 1410.06 450 L 1410.06 90 L 1590.06 90 L 1590.06 89.9"></path><path stroke-miterlimit="10" stroke-width="3" stroke="#2d7600" fill="#2d7600" d="M 1590.02 96.65 L 1585.57 87.62 L 1590.06 89.9 L 1594.57 87.67 Z"></path><path stroke-miterlimit="10" stroke-width="3" stroke="#2d7600" fill="none" d="M 1360 450 L 1410.06 450 L 1410.06 156 L 1590.53 156 L 1590.53 156.06"></path><path stroke-miterlimit="10" stroke-width="3" stroke="#2d7600" fill="#2d7600" d="M 1590.5 162.81 L 1586.04 153.78 L 1590.53 156.06 L 1595.04 153.83 Z"></path><path stroke-miterlimit="10" stroke-width="3" stroke="#2d7600" fill="none" d="M 1360 450 L 1395.02 450 M 1405.02 450 M 1405.02 450 L 1410.06 450 L 1410.06 230 L 1590.06 230 L 1590.06 229.9"></path><path stroke-miterlimit="10" stroke-width="3" stroke="#2d7600" fill="#2d7600" d="M 1590.02 236.65 L 1585.57 227.62 L 1590.06 229.9 L 1594.57 227.67 Z"></path><rect stroke="#9673a6" fill="#e1d5e7" height="60" width="160" y="420" x="1200"></rect><g transform="translate(-0.5 -0.5)"><switch><text text-anchor="middle" font-size="12px" font-family="Helvetica" fill="rgb(0, 0, 0)" y="454" x="1280">GHA.Common.Mail</text></switch></g><path stroke-miterlimit="10" stroke-width="3" stroke="#9673a6" fill="none" d="M 280 260 L 280 230.1"></path><path stroke-miterlimit="10" stroke-width="3" stroke="#9673a6" fill="#9673a6" d="M 280 223.35 L 284.5 232.35 L 280 230.1 L 275.5 232.35 Z"></path><rect stroke="#9673a6" fill="#e1d5e7" height="60" width="200" y="260" x="180"></rect><g transform="translate(-0.5 -0.5)"><switch><text text-anchor="middle" font-size="12px" font-family="Helvetica" fill="rgb(0, 0, 0)" y="294" x="280">GHA.Common.Epicor.FieldService</text></switch></g><path stroke-miterlimit="10" stroke-width="3" stroke="#82b366" fill="none" d="M 280.06 160 L 280.06 120 L 80.06 120 L 80.01 70.1"></path><path stroke-miterlimit="10" stroke-width="3" stroke="#82b366" fill="#82b366" d="M 80 63.35 L 84.51 72.35 L 80.01 70.1 L 75.51 72.36 Z"></path><path stroke-miterlimit="10" stroke-width="3" stroke="#82b366" fill="none" d="M 280 160 L 280 70.1"></path><path stroke-miterlimit="10" stroke-width="3" stroke="#82b366" fill="#82b366" d="M 280 63.35 L 284.5 72.35 L 280 70.1 L 275.5 72.35 Z"></path><rect stroke="#9673a6" fill="#e1d5e7" height="60" width="160" y="160" x="200"></rect><g transform="translate(-0.5 -0.5)"><switch><text text-anchor="middle" font-size="12px" font-family="Helvetica" fill="rgb(0, 0, 0)" y="194" x="280">GHA.Common.MQ</text></switch></g><rect stroke="#82b366" fill="#d5e8d4" height="60" width="160" y="0" x="0"></rect><g transform="translate(-0.5 -0.5)"><switch><text text-anchor="middle" font-size="12px" font-family="Helvetica" fill="rgb(0, 0, 0)" y="34" x="80">MFS Sync</text></switch></g><rect stroke="#6c8ebf" fill="#dae8fc" height="60" width="160" y="0" x="400"></rect><g transform="translate(-0.5 -0.5)"><switch><text text-anchor="middle" font-size="12px" font-family="Helvetica" fill="rgb(0, 0, 0)" y="34" x="480">License</text></switch></g><rect stroke="rgb(0, 0, 0)" fill="rgb(255, 255, 255)" height="60" width="160" y="0" x="600"></rect><g transform="translate(-0.5 -0.5)"><switch><text text-anchor="middle" font-size="12px" font-family="Helvetica" fill="rgb(0, 0, 0)" y="34" x="680">Epicor Incoming</text></switch></g><rect stroke="#d79b00" fill="#ffe6cc" height="60" width="160" y="0" x="800"></rect><g transform="translate(-0.5 -0.5)"><switch><text text-anchor="middle" font-size="12px" font-family="Helvetica" fill="rgb(0, 0, 0)" y="34" x="880">MFS App</text></switch></g><rect stroke="#b85450" fill="#f8cecc" height="60" width="160" y="0" x="1000"></rect><g transform="translate(-0.5 -0.5)"><switch><text text-anchor="middle" font-size="12px" font-family="Helvetica" fill="rgb(0, 0, 0)" y="34" x="1080">MFS Web</text></switch></g><rect stroke="#2d7600" fill="#60a917" height="60" width="160" y="70" x="1590"></rect><g transform="translate(-0.5 -0.5)"><switch><text text-anchor="middle" font-size="12px" font-family="Helvetica" fill="#ffffff" y="104" x="1670">Wiki Outgoing</text></switch></g><rect stroke="#82b366" fill="#d5e8d4" height="60" width="160" y="0" x="200"></rect><g transform="translate(-0.5 -0.5)"><switch><text text-anchor="middle" font-size="12px" font-family="Helvetica" fill="rgb(0, 0, 0)" y="34" x="280">MFS Data Sync</text></switch></g><rect stroke="#2d7600" fill="#60a917" height="60" width="160" y="140" x="1590"></rect><g transform="translate(-0.5 -0.5)"><switch><text text-anchor="middle" font-size="12px" font-family="Helvetica" fill="#ffffff" y="174" x="1670">Epicor Rebuild</text></switch></g><rect stroke="rgb(0, 0, 0)" fill="rgb(255, 255, 255)" height="60" width="120" y="370" x="1620"></rect><g transform="translate(-0.5 -0.5)"><switch><text text-anchor="middle" font-size="12px" font-family="Helvetica" fill="rgb(0, 0, 0)" y="404" x="1680">MQ Checker</text></switch></g><rect stroke="#3700cc" fill="#6a00ff" height="60" width="140" y="0" x="1400"></rect><g transform="translate(-0.5 -0.5)"><switch><text text-anchor="middle" font-size="12px" font-family="Helvetica" fill="#ffffff" y="34" x="1470">Trim Logs</text></switch></g><rect stroke="#2d7600" fill="#60a917" height="60" width="160" y="210" x="1590"></rect><g transform="translate(-0.5 -0.5)"><switch><text text-anchor="middle" font-size="12px" font-family="Helvetica" fill="#ffffff" y="244" x="1670">Epicor Sync</text></switch></g><path stroke-miterlimit="10" stroke-width="3" stroke="#6d1f00" fill="none" d="M 1090.06 420 L 1090.06 340 L 1280.06 340 L 1280 70.1"></path><path stroke-miterlimit="10" stroke-width="3" stroke="#6d1f00" fill="#6d1f00" d="M 1280 63.35 L 1284.5 72.35 L 1280 70.1 L 1275.5 72.35 Z"></path><rect stroke="#9673a6" fill="#e1d5e7" height="60" width="160" y="420" x="1000"></rect><g transform="translate(-0.5 -0.5)"><switch><text text-anchor="middle" font-size="12px" font-family="Helvetica" fill="rgb(0, 0, 0)" y="454" x="1080">GHA.Common.AQS</text></switch></g><path stroke-miterlimit="10" stroke-width="3" stroke="#6c8ebf" fill="none" d="M 1250.06 420 L 1250.06 345 M 1250.06 335 M 1250.06 335 L 1250.06 280 L 1085.05 280 M 1075.05 280 M 1075.05 280 L 885.06 280 M 875.06 280 M 875.06 280 L 680.04 280 L 680.04 280 L 480.06 280 L 480 70.1"></path><path stroke-miterlimit="10" stroke-width="3" stroke="#6c8ebf" fill="#6c8ebf" d="M 480 63.35 L 484.5 72.35 L 480 70.1 L 475.5 72.36 Z"></path><rect stroke="#6d1f00" fill="#a0522d" height="60" width="160" y="0" x="1200"></rect><g transform="translate(-0.5 -0.5)"><switch><text text-anchor="middle" font-size="12px" font-family="Helvetica" fill="#ffffff" y="34" x="1280">AQS</text></switch></g><path stroke-miterlimit="10" stroke-width="3" stroke="#6d1f00" fill="none" d="M 560 650 L 1390.06 650 L 1390.06 455 M 1390.06 445 M 1390.06 445 L 1390.06 340 L 1280.06 340 L 1280 70.1"></path><path stroke-miterlimit="10" stroke-width="3" stroke="#6d1f00" fill="#6d1f00" d="M 1280 63.35 L 1284.5 72.35 L 1280 70.1 L 1275.5 72.35 Z"></path><path stroke-miterlimit="10" stroke-width="3" stroke="#3700cc" fill="none" d="M 509.76 420.48 L 509.76 415 M 509.77 405 M 509.77 405 L 509.81 345 M 509.81 335 M 509.81 335 L 509.82 320 L 680.04 320 L 680.04 320 L 685.01 320 M 695.01 320 M 695.01 320 L 695.01 320 M 705.01 320 M 705.01 320 L 1245.06 320 M 1255.06 320 M 1255.06 320 L 1275.05 320 M 1285.05 320 M 1285.05 320 L 1400.06 320 L 1400.06 80 L 1470.06 80 L 1470.03 70.1"></path><path stroke-miterlimit="10" stroke-width="3" stroke="#3700cc" fill="#3700cc" d="M 1470.01 63.35 L 1474.54 72.34 L 1470.03 70.1 L 1465.54 72.37 Z"></path><path stroke-miterlimit="10" stroke-width="3" stroke="#3700cc" fill="none" d="M 1080.06 420 L 1080.01 345 M 1080.01 335 M 1080.01 335 L 1080 320"></path><path stroke-miterlimit="10" stroke-width="3" stroke="#6d1f00" fill="none" d="M 720.06 420 L 720.06 340 L 1075.01 340 M 1085.01 340 M 1085.01 340 L 1085.06 340 M 1095.06 340 M 1095.06 340 L 1245.06 340 M 1255.06 340 M 1255.06 340 L 1280.06 340 L 1280.06 325 M 1280.05 315 M 1280.05 315 L 1280 70.1"></path><path stroke-miterlimit="10" stroke-width="3" stroke="#6d1f00" fill="#6d1f00" d="M 1280 63.35 L 1284.5 72.35 L 1280 70.1 L 1275.5 72.35 Z"></path></g><switch><g></g><a xlink:href="https://www.drawio.com/doc/faq/svg-export-text-problems" transform="translate(0,-5)"><text y="100%" x="50%" font-size="10px" text-anchor="middle">Text is not SVG - cannot display</text></a></switch></svg>